<?xml version="1.0" encoding="utf-8"?>
<!-- Uploaded to: SVG Repo, www.svgrepo.com, Generator: SVG Repo Mixer Tools -->
<svg width="800px" height="800px" viewBox="-10.45 0 335.498 335.498" xmlns="http://www.w3.org/2000/svg"><defs><style>.a{fill:#ffffff;}.b{fill:#211715;}.c{fill:#a0a0a0;}.d{fill:#ffda71;}.e{fill:#7a7473;}.f{fill:#3d8dcc;}.g{fill:#85807f;}</style></defs><path class="a" d="M113.432,103.164C117.023,91,120.581,77.425,122.9,68.472c-.159-.044-.309-.085-.45-.122l-2.456-.717a33.764,33.764,0,0,1-3,3.041,27.459,27.459,0,0,1-3,1.846c-.887.455-2.232,1.025-3.2,1.473a40.231,40.231,0,0,1-8.216,2.9c-.971.2-1.967.345-3,.448q-.861.086-1.7.117c.02,1.187.032,1.922.032,1.922.19,11.67,1.56,30.68,8.47,44.91C108.474,119.231,110.961,111.533,113.432,103.164Z"/><path class="a" d="M89.144,238.552l-1.243-.347c0,7.461-.017,14.21-.037,20.99l.037.01c10.1,2.808,112.5,31.649,133.389,38.234v-21C201.071,270.064,104.452,242.831,89.144,238.552Z"/><path class="a" d="M217.26,333.566V297.937s0-.67,0-1.739c-2.259-.685-4.954-1.489-8-2.389,0,17.931,0,35.979,0,35.979Z"/><path class="a" d="M98.91,298.492c0-14.264.041-25.3.073-36.178l-7.927-2.229c-.032,10.877-.073,21.918-.073,36.185Z"/><path class="a" d="M166.581,229.123a27.569,27.569,0,0,1-3.14,5.687,14.494,14.494,0,0,1-4.423,4.275,9.1,9.1,0,0,1-6.463,1.108,8.325,8.325,0,0,1-5.689-5.126,18.74,18.74,0,0,1-.845-7.2c.056-3.938-.147-10.659-.091-14.6l-.088-9.511a72,72,0,0,0,4.185-5.906c.878-1.406,1.916-3,2.9-4.652l6.043.412c2.646.181,5.4.389,7.71,1.548A9.749,9.749,0,0,1,171.784,202a16.285,16.285,0,0,1-.861,8.153,60.025,60.025,0,0,0-1.878,5.852c-.476,2.21-.475,4.483-.768,6.72A26.084,26.084,0,0,1,166.581,229.123Z"/><path class="a" d="M49.8,56.027a3.033,3.033,0,0,0-1.727.806,2.738,2.738,0,0,0-1.165-.671c-2.741-.856-4.78,1.139-5.34,3.466a4.222,4.222,0,0,0-2.03-1.182c-2.224-.577-6.365.351-6.893,3.55a7.084,7.084,0,0,0-1.992-.393c-4.27-.464-5.79,4.143-6.153,7.294a19.807,19.807,0,0,0,.745,8.494,31.183,31.183,0,0,0,2.35,5.48c.646,1.158,1.507,2.2,2.139,3.365a7.1,7.1,0,0,1,1.174,4.01C36.7,88.943,42.941,87.4,48.332,86.2a8.424,8.424,0,0,1,1.22-3.536c1.007-1.737,3.287-5.117,3.951-7.011.73-2.082,1.671-3.382,2.345-5.559a11.382,11.382,0,0,0,.263-5.663,4.384,4.384,0,0,0-1.736-3.04l-.076-.252a15.9,15.9,0,0,0-1.773-3.422A5.672,5.672,0,0,0,51.373,56.4a1.905,1.905,0,0,0-1.275-.4A2.432,2.432,0,0,0,49.8,56.027Z"/><path class="a" d="M81.2,22.714a14.972,14.972,0,0,0-8.34,11.268,21.314,21.314,0,0,0,.468,8.847q.126.882.242,1.763c.488,3.7.86,7.363,1.272,10.772.827,6.851,2.986,13.031,7.835,16.913a21.94,21.94,0,0,0,15.191,5.182q.837-.031,1.7-.117c1.033-.1,2.029-.252,3-.448a40.231,40.231,0,0,0,8.216-2.9c.971-.448,2.316-1.018,3.2-1.473a27.459,27.459,0,0,0,3-1.846,33.882,33.882,0,0,0,2.923-2.948l.221-.257a39.232,39.232,0,0,0,3.5-4.771s1.183-1.948,1.674-3.055l.1-.213a8.391,8.391,0,0,0,3.905-1,11.4,11.4,0,0,0,4.254-5.118c1.037-2.147,1.473-5.744.5-7.829a3.931,3.931,0,0,0-3.289-2.217,4.364,4.364,0,0,0-3.138.726s2.493-24.254-31.222-24.254C89.624,19.739,84.719,20.905,81.2,22.714Z"/><path class="b" d="M215.26,297.937v35.629c0,2.574,4,2.578,4,0V297.937c0-2.574-4-2.578-4,0Z"/><path class="b" d="M207.26,294.159v35.629c0,2.574,4,2.578,4,0V294.159c0-2.574-4-2.578-4,0Z"/><path class="b" d="M89.675,236.623l-1.243-.347a2.021,2.021,0,0,0-2.531,1.929q0,10.5-.037,20.99a2.039,2.039,0,0,0,1.468,1.928q7.541,2.106,15.074,4.234,14.269,4.018,28.533,8.061,17.091,4.842,34.173,9.718,15.956,4.558,31.894,9.173c7.374,2.142,14.753,4.275,22.091,6.54q.831.258,1.661.518a2.018,2.018,0,0,0,2.532-1.928v-21a2.05,2.05,0,0,0-1.469-1.929c-6.457-2.034-12.965-3.914-19.464-5.81q-14.881-4.341-29.789-8.593-16.575-4.745-33.163-9.447-14.817-4.2-29.642-8.386-9.42-2.658-18.844-5.3l-1.244-.348c-2.483-.694-3.543,3.164-1.063,3.857q8.577,2.4,17.146,4.821,14.3,4.034,28.6,8.087,16.552,4.692,33.094,9.417,15.357,4.391,30.7,8.837c7.016,2.04,14.037,4.073,21.018,6.23q.795.246,1.589.5l-1.468-1.928v21l2.531-1.929c-6.738-2.123-13.531-4.081-20.313-6.057q-15.6-4.546-31.223-9-17.157-4.908-34.326-9.772-14.758-4.184-29.523-8.347-8.586-2.42-17.175-4.828l-.865-.241,1.468,1.929q.031-10.5.037-20.99l-2.532,1.929,1.243.346C91.1,241.174,92.155,237.316,89.675,236.623Z"/><path class="b" d="M92.983,296.27q0-18.007.073-36.014c.008-2.574-3.992-2.578-4,0Q89,278.264,88.983,296.27c0,2.574,4,2.578,4,0Z"/><path class="b" d="M100.91,298.492q0-18.007.073-36.014c.008-2.574-3.992-2.578-4,0q-.054,18.007-.073,36.014c0,2.574,4,2.578,4,0Z"/><path class="c" d="M111.2,171.544c-3.61,4.951-9.28,9.345-13.78,10.979A30.63,30.63,0,0,1,83.743,183.8c-.9,1.639-1.467,2.662-1.467,2.662-7.06,12.83-11.84,21.29-18.71,35.69a20.257,20.257,0,0,0-1.83,8.2c.02,2.23.46,4.31,2.16,5.75a7.565,7.565,0,0,0,5.724,1.569c-.711.909-1.454,1.854-2.211,2.831-9.46,12.15-22.51,29.16-31.16,40.21a3.822,3.822,0,0,0-1.13,2.59,3.782,3.782,0,0,0,1.47,2.23c7.16,5.763,16.34,14.027,24.41,18.93,13.17-16.77,30.729-38.6,43.19-53.5C111.6,242.1,125.583,227.405,136,215.411c4.6-5.293,10.3-11.621,14.024-17.561,2.135-3.419,5.22-7.935,6.1-11.8a22.187,22.187,0,0,1-5.266,2.064c-7.58,1.77-16.56.06-24.1-3.37-3.23-1.47-11.95-8.087-15.56-13.2"/><path class="d" d="M109.824,93.82c1.261,3.749,1.6,5.126,2.816,9.121l.47,1.308c-2.364,7.947-4.727,15.2-6.744,20.042a74.861,74.861,0,0,1-5.567-16.914l.6-2.645c1.181-5.207,1.722-7.7,2.6-11.182-.544-1.862-1.3-4.378-1.8-6.121l-.4-1.635c1.448-1.257,3.045-2.613,4-3.314,2.221,1.138,4.532,2.2,6.717,3.333-.4.864-.7,1.533-.7,1.533-.735,1.609-1.324,3.609-2.325,5.508C109.613,93.194,109.722,93.515,109.824,93.82Z"/><path class="e" d="M238.941,171.473c-3.3-3.853-5.907-7.043-7.2-8.959-5.681-8.4-7.9-14.9-5.979-22.862.8-3.31,3.614-6.839,7.521-9.883a19.128,19.128,0,0,1,12.378-4.062c8.731.179,20.42,8.37,25.817,12.376m-17.995,16.876c10.141-10.174,22.2-26.187,35.38-17.387,7.36,4.915,16.584,11.6,22,18.463,2.964,3.755,1.667,9.022-.5,12.37-5.511,8.675-11.918,15.975-22.522,26.559-10.825,10.8-15.373,13.97-20.931,17.439-1.9,1.188-6.44,1.705-10.775-1.158-4.266-2.816-15.011-15.742-19.855-22.392C228.55,178.241,242.533,166.678,253.482,154.959Zm0,0c3.556-3.568,7.393-7.907,11.45-11.653-10.369-8.4-21.521-14.337-29.106-5.989a12.359,12.359,0,0,0-2.769,11.863,21.073,21.073,0,0,0,3.054,6.456c1.141,1.684,4.079,5.132,7.9,9.421C246.945,161.748,250.274,158.392,253.482,154.959Z"/><path class="b" d="M254.9,156.373c5.269-5.3,10.117-11.292,16.29-15.6,2.572-1.793,5.515-3.417,8.695-3.706,3.478-.316,6.3,1.094,9.106,2.99,7.112,4.805,14.338,10,19.857,16.644,2.331,2.807,2.088,6.415.459,9.542a60.92,60.92,0,0,1-5.959,8.711,193.728,193.728,0,0,1-16.918,18.591,130.368,130.368,0,0,1-15.251,13.621,43.265,43.265,0,0,1-5.553,3.663c-2.679,1.358-6.572.11-8.946-1.644-.176-.13.019.016.046.036-.1-.079-.2-.162-.3-.245-.216-.183-.432-.366-.644-.554-.487-.43-.96-.877-1.426-1.33-1.049-1.021-2.06-2.08-3.054-3.153-2.4-2.6-4.705-5.284-6.954-8.012-2.019-2.448-4-4.928-5.887-7.479-1.844-2.494-2.875-5.13-2.161-8.248.79-3.451,2.906-6.544,5.086-9.269,2.713-3.391,5.757-6.5,8.778-9.62,1.59-1.638,3.18-3.276,4.74-4.942,1.759-1.878-1.064-4.712-2.828-2.829-3.351,3.578-6.851,7.014-10.149,10.642a49.7,49.7,0,0,0-7.725,10.364c-1.7,3.314-2.679,7.036-1.791,10.738.815,3.392,3.255,6.109,5.35,8.792a146.584,146.584,0,0,0,14.23,16.29,16.435,16.435,0,0,0,9.029,4.829,11.665,11.665,0,0,0,5.392-.383,16.412,16.412,0,0,0,3.477-1.931,100.638,100.638,0,0,0,14.4-11.66A234.71,234.71,0,0,0,303.839,180.7a113.783,113.783,0,0,0,6.947-9.285c2.2-3.293,4.128-6.906,3.77-11.012-.4-4.6-3.867-7.909-7.043-10.944a107.884,107.884,0,0,0-11.256-9.185c-3.377-2.45-6.892-5.366-10.937-6.606a15.909,15.909,0,0,0-10.455.568c-7.508,2.971-13.239,9.321-18.683,15.044-1.361,1.431-2.722,2.862-4.114,4.263C250.251,155.372,253.078,158.2,254.9,156.373Z"/><path class="b" d="M258.435,179.478q10.29-10.944,20.43-22.028c1.741-1.892-1.081-4.728-2.828-2.829q-10.173,11.055-20.43,22.029c-1.763,1.874,1.06,4.709,2.828,2.828Z"/><path class="b" d="M308.874,170.188c-8.857-9.159-18.2-17.91-27.667-26.432a124.952,124.952,0,0,0-11.117-9.143c-5.973-4.246-12.581-8.479-19.777-10.248-8.311-2.044-16.353,1.109-22.05,7.272a18.59,18.59,0,0,0-5.047,11.081,24.028,24.028,0,0,0,1.756,11.639,57.391,57.391,0,0,0,9.384,14.773c3.647,4.412,7.445,8.7,11.254,12.972,7.712,8.654,15.588,17.16,23.327,25.79q.807.9,1.609,1.808c1.7,1.935,4.525-.9,2.828-2.828-6.83-7.754-13.893-15.305-20.805-22.986-4-4.447-7.987-8.91-11.887-13.446-1.52-1.768-3.029-3.547-4.5-5.359q-.454-.561-.9-1.128c-.129-.163-.258-.328-.387-.492-.237-.3-.047-.061,0,0-.083-.108-.166-.215-.247-.324-.454-.6-.9-1.212-1.32-1.838-4.283-6.356-8.249-14.434-5.3-22.208,1.33-3.512,4.579-6.592,7.668-8.593a17.461,17.461,0,0,1,10.735-2.754,27.207,27.207,0,0,1,9.7,3.056,78.37,78.37,0,0,1,9.354,5.48q1.944,1.305,3.835,2.687.7.513,1.4,1.033c.32.237.045.031.086.064q.243.191.484.383c1.7,1.361,3.331,2.8,4.959,4.237,9.389,8.312,18.52,16.969,27.365,25.858q1.222,1.23,2.43,2.475c1.793,1.854,4.619-.977,2.828-2.829Z"/><path class="b" d="M302.129,176.781c-3.327-3.943-7.021-7.593-10.668-11.236q-6.869-6.862-13.933-13.526c-3.314-3.134-6.615-6.316-10.112-9.248-6.153-5.16-13.782-11.082-22.158-11.465-7.466-.342-13.839,5.65-14.607,12.954-.617,5.876,2.56,11.152,6.145,15.508,6.487,7.881,13.568,15.3,20.524,22.767q9.173,9.838,18.465,19.564l.785.819c1.789,1.857,4.616-.973,2.829-2.829-5.2-5.4-10.332-10.858-15.457-16.325-7.22-7.7-14.451-15.411-21.383-23.375-1.17-1.344-2.333-2.7-3.452-4.084-.2-.243-.39-.489-.584-.735s.256.35-.051-.067c-.085-.116-.173-.23-.258-.346a23.155,23.155,0,0,1-2.231-3.744,12.062,12.062,0,0,1-.687-9.605,10.634,10.634,0,0,1,6.432-6.091c3.222-.988,6.692-.116,9.695,1.193a51.528,51.528,0,0,1,11.131,7.039c3.494,2.763,6.74,5.825,9.988,8.868,8.519,7.98,17.063,16.054,24.917,24.7.625.688,1.242,1.384,1.842,2.1,1.662,1.969,4.479-.872,2.828-2.829Z"/><path class="a" d="M3.747,294.5a15.566,15.566,0,0,1-1.561-3.944,9.381,9.381,0,0,1,.33-4.96,6.763,6.763,0,0,1,2.49-3.07,12.006,12.006,0,0,1,4.5-1.52,14.21,14.21,0,0,1,5.9.43,94.056,94.056,0,0,1,23.13,9.44s.934-.978,2-2.1c5.162,4.29,10.972,9.229,16.513,13.1-.39,1.224-.872,2.836-1.434,4.29-1.08,3.35-1.14,8.77-5.05,14.28a9.888,9.888,0,0,1-4.96,3.06c-1.52.47-5.7-.39-9.34-2.63a155.824,155.824,0,0,1-16.52-11.68c-2-1.61-4.89-3.97-6.9-5.58C9.176,300.66,5.815,298.156,3.747,294.5Z"/><path class="b" d="M69.616,235.671a5.7,5.7,0,0,1-4.593-1.245c-1.185-1.152-1.313-2.925-1.288-4.485.065-3.966,1.824-7.371,3.52-10.85,3.317-6.8,6.819-13.507,10.441-20.151,2.089-3.831,4.2-7.647,6.307-11.47,1.242-2.256-2.211-4.277-3.454-2.018-4.01,7.286-8.061,14.551-11.885,21.938q-3.083,5.955-5.986,12c-1.881,3.908-3.358,8.087-2.848,12.5a8.456,8.456,0,0,0,2.946,5.859,9.562,9.562,0,0,0,6.84,1.918c2.545-.222,2.568-4.224,0-4Z"/><path class="b" d="M143.93,213.267c-.038,3.015.03,6.031.069,9.046a94.659,94.659,0,0,0,.165,9.869,11.685,11.685,0,0,0,4.831,8.6,10.366,10.366,0,0,0,10.312.406c3.2-1.528,5.521-4.55,7.27-7.542a28.277,28.277,0,0,0,3.6-10.184c.286-1.984.313-4,.621-5.976a32.244,32.244,0,0,1,1.672-5.682c1.263-3.6,2.149-7.6.986-11.359a11.878,11.878,0,0,0-7.438-7.722,24.312,24.312,0,0,0-6.388-1.068c-2.256-.165-4.513-.31-6.769-.464-2.57-.176-2.559,3.825,0,4a82.648,82.648,0,0,1,9.988.831c2.819.544,5.224,1.933,6.435,4.635,1.25,2.789.669,5.941-.219,8.742-.5,1.578-1.132,3.114-1.595,4.7a27.187,27.187,0,0,0-.877,5.25c-.533,6.083-2.212,12.324-6.816,16.675-1.976,1.867-4.987,3.057-7.642,1.943-2.6-1.091-3.8-3.822-4.043-6.469-.281-3.027-.054-6.151-.092-9.191-.039-3.015-.107-6.031-.069-9.046.032-2.574-3.968-2.576-4,0Z"/><path class="b" d="M39.545,289.144a89.2,89.2,0,0,0-12.285-5.918,64.208,64.208,0,0,0-13.143-4.1c-4.607-.76-10.4.256-12.91,4.634-2.157,3.763-1.156,8.357.912,11.921,2.046,3.526,5.257,6.1,8.391,8.61,3.6,2.882,7.145,5.838,10.8,8.657,3.984,3.076,8.094,5.983,12.355,8.664,3.356,2.111,7.713,4.543,11.859,3.936,5.414-.794,8.363-5.745,9.958-10.486a61.511,61.511,0,0,0,1.578-6.478,22.522,22.522,0,0,1,.823-2.789,13.274,13.274,0,0,0,1.187-3.91c0-2.574-4-2.578-4,0,0-.39-.332.731-.377.87-.165.51-.332,1.02-.509,1.527a27.439,27.439,0,0,0-.851,2.666c-.368,1.546-.631,3.115-1.015,4.657-.905,3.632-2.346,7.914-6.008,9.527a4.648,4.648,0,0,1-3.528.27,18.214,18.214,0,0,1-5.314-2.141,133.756,133.756,0,0,1-11.213-7.55c-3.4-2.519-6.67-5.211-9.961-7.874a88.615,88.615,0,0,1-8.253-6.98c-2.292-2.373-4.3-5.575-4.008-9,.348-4.093,4.952-5.288,8.438-4.947a33.33,33.33,0,0,1,6.473,1.587c2.183.678,4.338,1.443,6.466,2.276a83.65,83.65,0,0,1,12.12,5.828c2.221,1.314,4.235-2.142,2.019-3.454Z"/><path class="b" d="M154.361,184.072a14.17,14.17,0,0,1-2.046,6.132c-1.132,2.129-2.45,4.15-3.734,6.189a106.372,106.372,0,0,1-9.667,12.632c-6.8,7.889-13.781,15.607-20.8,23.3-6.057,6.644-12.093,13.3-17.839,20.212q-9.58,11.532-18.968,23.222-10.946,13.576-21.726,27.286l2.424-.313A117.429,117.429,0,0,1,49.364,293.5c-2.087-1.7-4.151-3.421-6.217-5.143q-1.39-1.16-2.787-2.314a22.374,22.374,0,0,1-2.925-2.472c-.659-.775.323-1.562.839-2.222q1.066-1.365,2.131-2.731,2.2-2.821,4.386-5.647,4.752-6.13,9.491-12.271C65.775,245.82,77.2,230.905,89.026,216.291c7.791-9.628,15.46-19.351,22.784-29.341a2.014,2.014,0,0,0-.718-2.736,2.046,2.046,0,0,0-2.736.718c-6.744,9.2-13.784,18.165-20.95,27.037-5.738,7.1-11.557,14.149-17.061,21.437-6.2,8.212-12.582,16.294-18.873,24.438q-4.872,6.3-9.749,12.6-2.289,2.952-4.584,5.9c-1.381,1.771-3.528,3.753-3.948,6.016-.605,3.256,2.815,5.241,4.949,7.007,2.356,1.95,4.7,3.921,7.06,5.863a133.31,133.31,0,0,0,14.79,10.955,2.012,2.012,0,0,0,2.424-.313q19.233-24.487,39.045-48.52c12.5-15.105,26.132-29.221,39-44.014a121.284,121.284,0,0,0,11.3-14.482c2.791-4.413,6.489-9.351,6.607-14.787.055-2.575-3.945-2.574-4,0Z"/><path class="f" d="M81.781,183.413c-.285-.072-.565-.151-.837-.235a12.232,12.232,0,0,1-1.915-.765c-1.49-.759-2.827-1.9-2.36-3.618,3.193-11.781,6.157-24.914,6.157-32.529,0-5.763-1.659-17.39-3.878-28.458l-.249.211c-2.09,1.775-4.534,3.733-7.078,5.7-.78.6-1.56,1.194-2.35,1.781-1.307.988-2.634,1.955-3.94,2.883-.263.186-.526.371-.78.557-3.107,2.187-6.071,4.127-8.474,5.467-4.039,2.261-8.953,5.408-13.5,6.281-4.565.872-11.292-.523-13.817-4.406-2.027-3.125-2.249-7.1-2.446-10.813-.076-1.432-.142-2.833-.188-4.224s-.093-2.772-.11-4.143q-.027-1.02-.025-2.04c-.067-7.793.272-15.369.817-23.922,8.022-1.686,17.663-4.166,24.893-5.669-.3,6.527-.436,11.774-.45,17.442,5.623-3.649,10.353-9.352,15.1-13.763,2.771-2.573,6.227-5.57,7.341-6.356A85.109,85.109,0,0,1,87.14,75.628l.509-.2a21.409,21.409,0,0,0,10.214,2.03c.021,1.225.033,1.922.033,1.922.19,11.67,1.56,30.68,8.47,44.91,4.98-11.95,12.07-38.62,16.08-54.08l.418-1.748c3.028.849,9.162,3.108,11.552,3.568a212.212,212.212,0,0,1,25.7,4.222c16.206,4.338,21.112,5.264,34.306,11.264,8.378,3.809,32.765,22.022,36.854,25.439-3.575,4.471-12.719,16.051-17.088,19.648-7.593-5.9-20.841-16.427-27.142-20.047-5.71-2.76-20.23-5.47-27.91-6.77l-.407-.069c-1.564,7.683-6.145,30.052-3.529,42.41,3.08,9.77,7.669,14.7,11.555,21.5,2,3.5,2.084,5.82-1.326,9.34-4.23,4.36-9.849,8.043-14.569,9.143-7.58,1.77-16.56.06-24.1-3.37-3.23-1.47-11.95-8.087-15.56-13.2-3.61,4.951-9.28,9.345-13.78,10.979A29.87,29.87,0,0,1,81.781,183.413Z"/><path class="b" d="M110.1,86.336c-.639,1.424-1.127,2.909-1.759,4.335-.177.4-.383.78-.567,1.174a2.437,2.437,0,0,0-.055,1.971q.376,1.109.738,2.223c.8,2.464,1.5,4.956,2.259,7.434.747,2.455,4.609,1.408,3.857-1.064-1.027-3.371-2.007-6.75-3.144-10.086l-.2,1.541c.912-1.766,1.544-3.767,2.325-5.509a2.061,2.061,0,0,0-.717-2.736,2.015,2.015,0,0,0-2.736.717Z"/><path class="b" d="M105.521,95.935q2.124-.524,4.293-.833a2,2,0,0,0,1.2-.919,2,2,0,0,0-.717-2.736l-.478-.2a2.018,2.018,0,0,0-1.063,0,43.717,43.717,0,0,0-4.293.833,2,2,0,1,0,1.063,3.857Z"/><path class="b" d="M100.271,87.961c.588,2.043,1.2,4.079,1.8,6.121V93.018c-.937,3.711-1.757,7.45-2.6,11.182a2.043,2.043,0,0,0,1.4,2.46,2.021,2.021,0,0,0,2.46-1.4c.669-2.953,1.318-5.91,2.027-8.853q.215-.892.438-1.782a3.4,3.4,0,0,0,.137-1.611c-.085-.389-.227-.775-.339-1.158-.488-1.654-.982-3.306-1.459-4.963-.711-2.469-4.572-1.419-3.857,1.064Z"/><path class="b" d="M100.718,89.389c1.042-.912,2.08-1.827,3.129-2.731.564-.485,1.131-.968,1.7-1.443q.417-.347.841-.686c.085-.068.483-.373.091-.076.109-.083.218-.165.329-.247h-2.019c2.721,1.391,5.511,2.647,8.19,4.121A2,2,0,1,0,115,84.874c-2.678-1.475-5.468-2.731-8.189-4.121a1.991,1.991,0,0,0-2.019,0c-2.419,1.784-4.645,3.83-6.9,5.808a2,2,0,0,0,2.828,2.828Z"/><path class="b" d="M86.131,73.9c-3.242,1.468-6.476,2.964-9.57,4.728A48.234,48.234,0,0,0,68.643,84.4c-2.961,2.591-5.772,5.312-8.536,8.11a68.544,68.544,0,0,1-9,8.095c-2.087,1.473-.09,4.943,2.019,3.454,6.576-4.639,11.731-10.987,17.739-16.3a43.506,43.506,0,0,1,7.718-5.682c3.095-1.763,6.328-3.26,9.57-4.728a2.016,2.016,0,0,0,.717-2.737,2.048,2.048,0,0,0-2.736-.717Z"/><path class="b" d="M53.325,112.079q-.215-13.315.377-26.608a2.024,2.024,0,0,0-2.532-1.929c-8.33,1.741-16.565,3.912-24.892,5.669-2.517.531-1.452,4.388,1.063,3.857C35.669,91.311,43.9,89.14,52.234,87.4L49.7,85.471q-.6,13.3-.377,26.608c.041,2.571,4.041,2.579,4,0Z"/><path class="b" d="M77.285,116.605a187.4,187.4,0,0,1-16.916,12.786c-2.692,1.8-5.485,3.394-8.293,5A38.094,38.094,0,0,1,43.19,138.5c-4.134,1.1-10.7.394-13.009-3.745-1.524-2.731-1.731-5.986-1.863-9.044-.143-3.336-.285-6.672-.323-10.012-.091-8.192.3-16.377.814-24.552.162-2.57-3.838-2.561-4,0-.492,7.8-.872,15.6-.823,23.414.022,3.651.175,7.3.324,10.944a27.415,27.415,0,0,0,1.882,10.19c2.471,5.534,9.179,7.646,14.864,7.2a25.4,25.4,0,0,0,9.471-3.094c3.023-1.547,6.009-3.257,8.9-5.041a174.678,174.678,0,0,0,20.689-15.321c1.968-1.663-.873-4.481-2.829-2.828Z"/><path class="a" d="M232.942,148.961a11.133,11.133,0,0,1-1.205-1.26c-.485-.572-.856-1.014-1.209-1.464-.309,1.916-.561,3.4-2.144,3.994a3.013,3.013,0,0,1-3.507-1.171,14.158,14.158,0,0,1-1.692-3.825,29.56,29.56,0,0,1-1.453-6.2,11.958,11.958,0,0,1,.253-5.532c.486-1.524-1.139-2.62-2.081-3.709,0,0-.289-.333-.739-.844,0,0-.225-.255-.616-.695,3.665-4.025,8.027-9.424,10.94-13.067l1.238.68c.837.451,1.39.743,1.39.743.563.3,1.744.863,3.034,1.478,1.965.936,4.182,1.986,4.846,2.372a16.823,16.823,0,0,1,3.38,3.01,22.193,22.193,0,0,1,2.22,2.8c1.29,1.91,3.27,4.12,3.19,6.58s-2.11,5.13-3.53,7.22c-1.61,2.08-5.438,6.218-6.878,7.738-.411.377-1.494,1.368-1.923,1.7a2.54,2.54,0,0,1-2.675.047A5.066,5.066,0,0,1,232.942,148.961Z"/><path class="b" d="M218.49,131.209c.363.4.763.773,1.129,1.173a1.992,1.992,0,0,1,.361.436c.333.708.086.169.085.159a4.392,4.392,0,0,1-.246.868c-.079.355-.133.713-.18,1.074a11.12,11.12,0,0,0-.092,1.947,33.564,33.564,0,0,0,1.709,8.9c.846,2.619,1.958,5.713,4.922,6.491s5.334-1.3,6.011-4.032c.619-2.5-3.238-3.564-3.857-1.063-.141.57-.209,1.115-.758,1.228-.74.152-1.125-.534-1.428-1.082a27.426,27.426,0,0,1-2.592-10.289,10.086,10.086,0,0,1,.36-2.986c.581-2.516-1.069-3.954-2.6-5.654-1.724-1.919-4.545.918-2.828,2.829Z"/><path class="b" d="M231.108,118.338c2.237,1.167,4.556,2.173,6.815,3.3,3.047,1.516,5.018,4.347,6.943,7.054.96,1.35,2.2,2.937,1.846,4.693-.365,1.8-1.634,3.429-2.653,4.91a64.3,64.3,0,0,1-6.134,7.08c-.43.462-.855.924-1.319,1.352q-.477.439-.967.867a2.261,2.261,0,0,1-.432.37c.2-.069.027-.042-.061-.049-.886-.07-1.615-1.178-2.136-1.791a29.732,29.732,0,0,1-1.9-2.484c-1.442-2.114-4.909-.116-3.454,2.019a20.277,20.277,0,0,0,4.622,5.3,4.75,4.75,0,0,0,6.192-.539,69.385,69.385,0,0,0,7.266-7.78c2.613-3.11,6-7.523,4.784-11.838-.632-2.243-2.188-4.128-3.511-6a24.561,24.561,0,0,0-4.993-5.368c-2.62-1.992-5.982-3.035-8.888-4.551-2.279-1.189-4.3,2.262-2.018,3.454Z"/><path class="b" d="M232.687,111.541c-4.45-3.7-9.2-7.088-13.886-10.484-6.169-4.472-12.4-8.934-18.937-12.855a96.319,96.319,0,0,0-20.8-8.825,238.327,238.327,0,0,0-26.686-6.748A172.651,172.651,0,0,0,135.27,70.1a27.443,27.443,0,0,1-5.851-1.633c-2.138-.7-4.266-1.466-6.442-2.046-2.49-.663-3.552,3.195-1.063,3.857,3.771,1,7.386,2.544,11.171,3.5a59.229,59.229,0,0,0,6.759.827c2.435.318,4.862.707,7.282,1.124a259.74,259.74,0,0,1,27.553,6.513c7.244,2.079,14.674,4.62,21.27,8.312a197.72,197.72,0,0,1,18.121,12q5.06,3.62,10.034,7.355c2.209,1.661,3.718,2.762,5.754,4.458,1.965,1.636,4.81-1.179,2.829-2.829Z"/><path class="b" d="M229.858,111.541c-2.475,3.1-4.948,6.2-7.486,9.243a106.641,106.641,0,0,1-8.507,9.429c-1.876,1.771.956,4.6,2.828,2.829a106.481,106.481,0,0,0,8.507-9.43c2.538-3.046,5.011-6.145,7.487-9.242a2.064,2.064,0,0,0,0-2.829,2.015,2.015,0,0,0-2.829,0Z"/><path class="b" d="M158.6,107.715c8.2,1.391,16.574,2.8,24.485,5.431a32.2,32.2,0,0,1,8.332,4.653c3.576,2.509,7.06,5.147,10.525,7.806,3.71,2.846,7.383,5.738,11.076,8.606a2.065,2.065,0,0,0,2.828,0,2.014,2.014,0,0,0,0-2.829c-6.985-5.424-13.9-10.953-21.092-16.1-2.825-2.023-5.657-4.144-8.922-5.394a84.173,84.173,0,0,0-12.012-3.31c-4.692-1.034-9.419-1.914-14.156-2.718a2.059,2.059,0,0,0-2.46,1.4,2.017,2.017,0,0,0,1.4,2.46Z"/><path class="b" d="M73.827,104.473c2.08,7.779,3.669,15.7,4.982,23.641,1.044,6.314,2.217,12.879,2,19.305-.3,8.627-2.564,17.285-4.686,25.607q-.42,1.645-.855,3.287a10.721,10.721,0,0,0-.663,3.51c.167,2.11,1.888,3.6,3.688,4.449a23.383,23.383,0,0,0,11.331,1.742,27.205,27.205,0,0,0,12.349-3.473,37.351,37.351,0,0,0,10.954-9.987,2.015,2.015,0,0,0-.718-2.737,2.047,2.047,0,0,0-2.736.718c-4.415,5.965-10.882,10.578-18.367,11.357-3.415.356-7.231.386-10.467-.931a4.243,4.243,0,0,1-1.893-1.163c-.385-.6.15-1.563.321-2.2q.874-3.286,1.683-6.589c1.9-7.77,3.857-15.847,4.068-23.881.161-6.13-.919-12.377-1.878-18.407a249.557,249.557,0,0,0-5.252-25.308c-.664-2.484-4.524-1.43-3.857,1.064Z"/><path class="g" d="M77.1,16a32.98,32.98,0,0,0-4.365,11.869,50.22,50.22,0,0,0,.652,16.783c.082-.564.137-.949.137-.949.4-2.841,5.567-10.792,9.4-13.124.449-.274,1.067.018,1.3.782a5.11,5.11,0,0,1,.241,1.852.97.97,0,0,0,1.446.951c2.136-1.372,5.79-4.593,10.081-6.634a41.561,41.561,0,0,1,9.144-.748c1.754.633,9.834,3.137,16.1,13.512a11.248,11.248,0,0,0,3.045,2.806,4.574,4.574,0,0,0,3.355.889,4.364,4.364,0,0,1,3.138-.726,3.931,3.931,0,0,1,3.289,2.217,5.218,5.218,0,0,1,.361,1.1c2.038-3.845,2.107-10.71,2.237-13.657a26.969,26.969,0,0,0-.942-8.261c-1.463-5.347-3.607-9.7-7.871-13.464L127,10.457,122.59,7.478a30,30,0,0,0-20.059-5.367c-10.238.748-18.39,4.9-23.765,11.533A23.4,23.4,0,0,0,77.1,16Z"/><path class="b" d="M126.434,12.616a25.834,25.834,0,0,1,8.166,17.07,51.621,51.621,0,0,1-.2,8.31,19.921,19.921,0,0,1-1.8,7.762c-1.222,2.266,2.23,4.288,3.453,2.019a24.3,24.3,0,0,0,2.317-9.442,49.459,49.459,0,0,0,.192-9.111c-.71-7.29-3.79-14.5-9.3-19.436-1.912-1.713-4.75,1.106-2.828,2.828Z"/><path class="b" d="M104.6,28.714c.3.109.608.214.909.326.23.086.458.175.686.265.065.026.5.205.151.06s.115.051.178.079a26.717,26.717,0,0,1,3.883,2.123,25.267,25.267,0,0,1,4.459,3.7,33.286,33.286,0,0,1,4.641,6.036c1.338,2.2,4.8.188,3.454-2.019a35.124,35.124,0,0,0-10.388-11.077,31.452,31.452,0,0,0-6.909-3.354,2.02,2.02,0,0,0-2.461,1.4,2.041,2.041,0,0,0,1.4,2.46Z"/><path class="b" d="M75.448,44.239c.358-2.162,1.849-4.287,3.116-6.137a31.148,31.148,0,0,1,2.577-3.292,21.44,21.44,0,0,1,1.516-1.529c.206-.186.418-.379.64-.548.614-.467.406,0-.18-.22L82.235,32c.45.348.229,1.741.418,2.305a2.938,2.938,0,0,0,2.485,1.972c1.685.139,3.122-1.314,4.389-2.256,3.278-2.435,6.7-4.86,10.695-5.917,2.487-.657,1.432-4.516-1.063-3.857a28.6,28.6,0,0,0-8.538,4.093c-1.146.769-2.256,1.59-3.364,2.414a15.124,15.124,0,0,1-2.608,1.8l1.01-.273q.846,1.615.807.771a2.527,2.527,0,0,0,0-.337,8.314,8.314,0,0,0-.12-1.067,4.7,4.7,0,0,0-.737-1.9,2.83,2.83,0,0,0-3.7-.9,16.244,16.244,0,0,0-4.454,4.12,40.147,40.147,0,0,0-3.82,5.441,14.887,14.887,0,0,0-2.043,4.759,2.061,2.061,0,0,0,1.4,2.46,2.015,2.015,0,0,0,2.46-1.4Z"/><path class="b" d="M92.067,66.789a13.442,13.442,0,0,0,4.43.486,9.6,9.6,0,0,0,2.362-.4,20.587,20.587,0,0,0,2.422-1.121A2.01,2.01,0,0,0,102,63.019a2.054,2.054,0,0,0-2.737-.717c-.333.159-.658.334-.987.5-.07.036-.449.166-.473.23q.426-.174.149-.068c-.069.025-.138.048-.207.07a8.1,8.1,0,0,1-.887.209c-.214.033-.154.027.181-.02l-.239.026c-.141.013-.282.023-.424.031a11.906,11.906,0,0,1-1.9-.061l-.238-.028q.5.069.181.021c-.151-.027-.3-.051-.453-.081q-.423-.084-.837-.2a2,2,0,1,0-1.064,3.857Z"/><path class="b" d="M101.055,49.371c-.393-1.4-.039-4.577,2.593-4.786,3.47.1,3.562,3.963,2.35,5.747C105.007,51.793,102.18,52.343,101.055,49.371Z"/><path class="b" d="M80.438,49.524c-.361-1.4-.039-4.592,2.371-4.8,3.178.106,3.265,3.977,2.156,5.766C84.058,51.956,81.47,52.506,80.438,49.524Z"/><path class="b" d="M90.644,52.316c-.442.76-.864,1.535-1.237,2.331a3.981,3.981,0,0,0-.471,1.6,2.441,2.441,0,0,0,.813,1.9,3.473,3.473,0,0,0,1.448.819,7.958,7.958,0,0,0,1.032.133l-.532-.072.034.005a1.526,1.526,0,0,0,.8.036,1.487,1.487,0,0,0,.743-.238,2,2,0,0,0,.718-2.736,1.918,1.918,0,0,0-1.2-.919c-.3-.041-.6-.071-.9-.107l.531.072a1.5,1.5,0,0,1-.342-.089l.477.2a1.641,1.641,0,0,1-.287-.165l.405.313a1.719,1.719,0,0,1-.24-.219l.313.405a.39.39,0,0,1-.05-.083l.2.478a.689.689,0,0,1-.037-.14l.071.532a1.086,1.086,0,0,1,0-.151l-.071.531a1.568,1.568,0,0,1,.1-.367l-.2.478A23.676,23.676,0,0,1,94.1,54.335a2.076,2.076,0,0,0,.2-1.541,2.042,2.042,0,0,0-.919-1.2,2.017,2.017,0,0,0-1.541-.2,2.082,2.082,0,0,0-1.195.919Z"/><path class="b" d="M123.6,5.751a33,33,0,0,0-16.582-5.7,39.453,39.453,0,0,0-16.052,2.52A32.748,32.748,0,0,0,78.48,10.919a31.857,31.857,0,0,0-7.508,15.45,48.139,48.139,0,0,0,.577,19.244c.563,2.511,4.42,1.448,3.857-1.063-2.182-9.742-1.673-21.365,4.775-29.492C86.061,7.646,95.5,4.141,104.77,4.011a29.177,29.177,0,0,1,16.811,5.194c2.148,1.431,4.154-2.032,2.019-3.454Z"/><path class="b" d="M109.769,72.266c-6.62,3.11-14.491,4.68-21.345,1.328a19.016,19.016,0,0,1-7.836-6.608,26.566,26.566,0,0,1-3.5-9.963c-.824-4.869-1.139-9.833-1.83-14.725a2.013,2.013,0,0,0-2.461-1.4,2.052,2.052,0,0,0-1.4,2.46c1.2,8.483.946,17.98,5.643,25.491,4.32,6.908,12.62,10.859,20.664,10.611a35.649,35.649,0,0,0,14.085-3.743c2.328-1.094.3-4.544-2.019-3.454Z"/><path class="b" d="M128.646,45.72a2.628,2.628,0,0,1,2.567-.3q.362.13.117.04c.116.058.229.12.338.188q.294.2.024,0c.082.069.162.142.237.218.1.095.335.462.06.036.088.137.172.273.256.413.2.333,0-.139.1.258.052.2.112.4.158.6q.058.366.034.115c.018.149.032.3.042.449.022.309.027.619.021.929a9.592,9.592,0,0,1-.54,3.043,10.212,10.212,0,0,1-3.1,4.545,8.512,8.512,0,0,1-1.015.643c-.195.09-.187.088.026,0-.116.045-.232.088-.349.129q-.39.133-.79.232a4.2,4.2,0,0,1-1.268.178,3.188,3.188,0,0,1-1.235-.154,2.062,2.062,0,0,0-2.736.717,2.016,2.016,0,0,0,.717,2.737,9.019,9.019,0,0,0,7.438-.282,11.528,11.528,0,0,0,4.881-4.852,14.742,14.742,0,0,0,1.952-6.458,7.957,7.957,0,0,0-1.774-6.05,6.648,6.648,0,0,0-8.183-.821A2.05,2.05,0,0,0,125.91,45a2.018,2.018,0,0,0,2.736.717Z"/><path class="b" d="M103.414,41.309a22.523,22.523,0,0,0,4.012-1.417,2.017,2.017,0,0,0,.919-1.2,2.043,2.043,0,0,0-.2-1.541,2.017,2.017,0,0,0-1.2-.919l-.532-.072a1.987,1.987,0,0,0-1.009.273q-.213.1-.431.193l.478-.2a23.178,23.178,0,0,1-3.1,1.022,2.063,2.063,0,0,0-1.2.919,2,2,0,0,0,.718,2.737,2.1,2.1,0,0,0,1.541.2Z"/><path class="b" d="M118.4,72.088a38.226,38.226,0,0,0,5.7-6.5,30.984,30.984,0,0,0,2.927-4.939,2.049,2.049,0,0,0-.717-2.736,2.023,2.023,0,0,0-2.737.717,30.639,30.639,0,0,1-2.823,4.79q-.26.373-.527.74-.133.184-.27.367c-.015.019-.374.491-.132.178-.4.517-.817,1.02-1.246,1.512a35.5,35.5,0,0,1-3.007,3.04,2.012,2.012,0,0,0,0,2.828,2.045,2.045,0,0,0,2.828,0Z"/><path class="b" d="M109.469,172.554a49.971,49.971,0,0,0,10.82,10.39,35.44,35.44,0,0,0,4.984,3.292,41.9,41.9,0,0,0,7.881,2.962c5.864,1.635,12.258,2.262,18.233.842,5.63-1.338,10.793-5.051,14.853-9.054,1.98-1.952,3.943-4.342,3.9-7.279-.034-2.553-1.466-4.825-2.757-6.929-2.693-4.392-5.734-8.552-7.948-13.225a27.641,27.641,0,0,1-2.638-7.778,45.572,45.572,0,0,1-.39-5.9,106.513,106.513,0,0,1,.907-14.1c.572-4.715,1.362-9.4,2.25-14.07.5-2.62,1.13-5.227,1.547-7.861a2.063,2.063,0,0,0-1.4-2.461,2.016,2.016,0,0,0-2.46,1.4c-.933,5.889-2.332,11.7-3.21,17.6-1.289,8.672-2.4,17.71-1.1,26.447.754,5.105,3.507,10.119,6.188,14.466,1.251,2.029,2.589,4,3.871,6.009,1.139,1.784,2.89,3.931,3.128,6.1.253,2.3-2.155,4.252-3.648,5.63a35.375,35.375,0,0,1-7.111,5.137c-4.817,2.615-10.248,3.054-15.621,2.33a35.742,35.742,0,0,1-15.392-5.544c-4.159-2.856-8.472-6.307-11.435-10.432a2.059,2.059,0,0,0-2.737-.718,2.017,2.017,0,0,0-.717,2.737Z"/><path class="b" d="M81.817,87.779c1.639,1.657,2.842,3.678,4.481,5.335l.405-3.141A34.886,34.886,0,0,0,80.861,94.7a2.032,2.032,0,0,0-.312,2.423c4.08,6.344,8.086,12.737,12.127,19.105q.978,1.543,1.957,3.085c1.378,2.166,4.841.162,3.454-2.019q-6.1-9.6-12.188-19.207c-.631-.994-1.259-1.992-1.9-2.983l-.313,2.424a29.959,29.959,0,0,1,5.031-4.1,2.026,2.026,0,0,0,.405-3.141c-1.639-1.657-2.841-3.678-4.48-5.335-1.813-1.833-4.641,1-2.829,2.828Z"/><path class="b" d="M133.223,79.246c-1.809,1.992-3.542,4.049-5.411,5.986a2.038,2.038,0,0,0,.405,3.142c2.134,1.64,4.187,3.385,6.263,5.1l-.313-2.423c-5.338,7.273-10.154,14.915-15.581,22.125a2.012,2.012,0,0,0,.717,2.736,2.05,2.05,0,0,0,2.737-.717c5.427-7.21,10.243-14.852,15.581-22.126a2,2,0,0,0-.313-2.423c-2.339-1.931-4.667-3.875-7.072-5.724l.4,3.141c1.87-1.937,3.6-3.994,5.412-5.986,1.727-1.9-1.094-4.739-2.829-2.829Z"/><path class="b" d="M50.293,86.439c.54-3.233,3.111-5.864,4.506-8.766.754-1.569,1.408-3.209,2.11-4.8a14.977,14.977,0,0,0,1.44-6.1c-.008-3.4-1.176-6.82-4.7-7.881-3.064-.922-8.007-.941-10.286,1.664a5.528,5.528,0,0,0-.843,5.99c.846,1.73,2.755,2.283,4.242,3.31,2.123,1.467,4.125-2,2.019-3.454-.868-.6-2.8-1.068-2.8-2.224.006-1.518,1.839-1.666,2.977-1.728a8.1,8.1,0,0,1,4.1.489c1.088.6,1.209,2.167,1.267,3.287a11.324,11.324,0,0,1-1.28,5.508c-.7,1.481-1.236,3.043-1.993,4.492-1.562,2.991-4.054,5.749-4.623,9.156a2.061,2.061,0,0,0,1.4,2.46,2.015,2.015,0,0,0,2.46-1.4Z"/><path class="b" d="M32.9,90.065c-.142-4.12-3.239-7.095-4.815-10.718A19.009,19.009,0,0,1,26.66,67.988a7.613,7.613,0,0,1,1.534-3.551c.963-1.071,2.362-1,3.653-.6a8.818,8.818,0,0,1,2.166,1.14,9.212,9.212,0,0,1,2.113,1.571c.372.448.631,1.05-.047,1.355-.368.166-.119.117-.525-.061-.455-.2-.887-.524-1.323-.765-2.255-1.247-4.275,2.207-2.019,3.454A10.847,10.847,0,0,0,34.94,71.9,4.55,4.55,0,0,0,38.1,71.36a4.658,4.658,0,0,0,2.124-5.654c-.694-1.946-2.54-3.1-4.19-4.18a10.793,10.793,0,0,0-5.874-1.952c-3.736-.029-6.081,2.952-7.076,6.257a21.541,21.541,0,0,0,.273,12.235,28.476,28.476,0,0,0,2.621,6.006c1.115,1.912,2.845,3.672,2.925,5.993.089,2.567,4.089,2.579,4,0Z"/><path class="b" d="M34.664,62.031c.068-.139.144-.27.22-.4.007-.012.1-.165.107-.163.026.012-.28.3-.116.148.111-.1.2-.227.308-.331.046-.045.1-.087.143-.131.087-.082.261-.128.049-.048-.247.093-.023.018.062-.034.055-.034.109-.072.165-.106.112-.068.227-.133.343-.193.079-.041.158-.077.237-.116.115-.058.191-.014,0,0s-.1.038.008,0,.208-.073.314-.106a7.253,7.253,0,0,1,.831-.206c.064-.012.13-.019.193-.033.212-.048-.2.03-.212.027.092.048.4-.036.505-.041a6.667,6.667,0,0,1,.787.008c.083.006.493.044.131.007s.114.031.209.054c.11.027.218.058.326.093.378.124-.031.051-.044-.034a2.876,2.876,0,0,0,.418.215c.156.091.408.331.148.074.137.135.274.273.413.405s-.017-.023-.04-.057l.154.225c.232.344.457.694.662,1.056.167.3.311.6.458.9.1.2-.04-.093-.047-.111.028.077.06.152.088.229.081.216.155.434.224.654.05.159.1.319.139.481.025.1.038.2.066.3.068.24-.018-.146-.011-.138.06.07.025.386.025.479a1.639,1.639,0,0,1-.018.314c-.031.014.145-.389-.015-.082-.057.108-.126.154-.009.034.246-.25-.286.323.079-.156-.026.034-.226.2-.031.044s-.086.031-.121.058c-.161.125.076-.028.122-.04-.044.011-.453.188-.181.076.193-.079.076,0-.032,0-.091,0-.181,0-.271-.007a1.138,1.138,0,0,1-.276-.027c.124.054.337.054.07,0-.22-.041-.44-.08-.659-.127-.411-.087-.82-.189-1.224-.3A2,2,0,1,0,38.3,68.785c2.157.612,4.569,1.079,6.384-.6,1.945-1.8,1.222-4.628.31-6.743-.781-1.812-1.986-3.711-3.856-4.524a8.173,8.173,0,0,0-5.056-.4,7.007,7.007,0,0,0-4.873,3.49,2,2,0,0,0,3.454,2.019Z"/><path class="b" d="M43.9,59.118c.1-.164.542-.686.1-.2.139-.154.268-.314.418-.458a.955.955,0,0,1,.229-.2l-.244.186c.055-.041.11-.08.166-.118.157-.105.321-.189.486-.279.181-.1-.506.187-.1.045.1-.034.2-.064.3-.089.085-.022.171-.037.256-.057.375-.084-.471.021-.107.021.225,0,.447.013.671.018-.555-.014-.24-.031-.064.009.122.027.243.06.362.1l.121.04q.306.115-.151-.069a1.535,1.535,0,0,0,.28.152c.071.045.322.232.035.015s-.021,0,.039.061.279.337.051.038-.041-.051.007.018c.11.156.211.318.315.478s.219.334.316.509c.046.084.086.169.13.253.17.322-.171-.478-.053-.127.147.437.271.875.379,1.324a2.019,2.019,0,0,0,2.461,1.4,2.041,2.041,0,0,0,1.4-2.46c-.57-2.366-1.883-4.812-4.384-5.522a5.97,5.97,0,0,0-4.231.373A6.415,6.415,0,0,0,40.447,57.1,2,2,0,1,0,43.9,59.118Z"/><path class="b" d="M49.5,58.229c.074-.069.149-.134.229-.2l-.405.313a3.218,3.218,0,0,1,.645-.368l-.478.2a3.629,3.629,0,0,1,.8-.217l-.532.072a3.069,3.069,0,0,1,.7-.007l-.532-.071a1.845,1.845,0,0,1,.445.115l-.477-.2a3.119,3.119,0,0,1,.526.308l-.405-.313a4.323,4.323,0,0,1,.7.741l-.312-.4a15.424,15.424,0,0,1,1.918,3.324l-.2-.478c.087.207.17.414.243.626a2.128,2.128,0,0,0,.919,1.2,2,2,0,0,0,2.938-2.258,16.97,16.97,0,0,0-1.217-2.676,12.416,12.416,0,0,0-1.87-2.637,4.134,4.134,0,0,0-3.189-1.283A5.227,5.227,0,0,0,46.673,55.4a2.016,2.016,0,0,0,0,2.828,2.043,2.043,0,0,0,2.829,0Z"/><path class="b" d="M95.9,79.381c.263,15.489,1.949,31.8,8.743,45.919.835,1.737,3.069.936,3.655-.477a198.913,198.913,0,0,0,6.509-19.252c2.311-7.722,4.454-15.493,6.534-23.28q1.542-5.767,3.037-11.548c.647-2.494-3.21-3.557-3.857-1.064-3.855,14.858-7.739,29.753-12.544,44.338-1.081,3.281-2.212,6.551-3.536,9.742l3.656-.477c-3.458-7.188-5.345-15.086-6.554-22.938A155.135,155.135,0,0,1,99.9,79.381c-.044-2.571-4.044-2.579-4,0Z"/></svg>