<?xml version="1.0" standalone="no"?>
<!DOCTYPE svg PUBLIC "-//W3C//DTD SVG 20010904//EN"
 "http://www.w3.org/TR/2001/REC-SVG-20010904/DTD/svg10.dtd">
<svg version="1.0" xmlns="http://www.w3.org/2000/svg"
 width="800.000000pt" height="600.000000pt" viewBox="0 0 800.000000 600.000000"
 preserveAspectRatio="xMidYMid meet">

<g transform="translate(0.000000,600.000000) scale(0.100000,-0.100000)"
fill="#000000" stroke="none">
<path d="M1350 4130 l0 -1640 445 1 445 1 0 478 0 478 378 5 c323 4 394 8 492
25 468 84 794 356 906 757 59 208 64 513 14 712 -74 287 -225 490 -480 643
-139 83 -290 133 -497 165 -86 12 -234 15 -903 15 l-800 0 0 -1640z m1490 869
c132 -21 247 -95 284 -183 22 -53 38 -180 31 -244 -16 -142 -56 -221 -139
-275 -106 -70 -210 -87 -535 -87 l-241 0 0 400 0 400 268 0 c147 0 296 -5 332
-11z"/>
<path d="M2304 3343 c3 -10 222 -483 485 -1052 l479 -1033 -25 -67 c-70 -187
-120 -254 -218 -291 -53 -19 -74 -21 -185 -18 -107 4 -137 9 -212 35 l-88 31
0 -340 0 -339 43 -18 c99 -42 312 -71 524 -72 327 0 553 81 758 273 l66 61 52
-26 c93 -46 163 -61 282 -62 64 0 131 6 160 14 68 19 195 85 242 126 l38 33
-60 -21 c-86 -30 -247 -30 -325 1 -63 25 -141 86 -189 149 l-32 41 27 54 c16
29 78 176 139 327 110 274 111 275 145 284 62 16 161 3 220 -29 78 -42 238
-199 309 -303 33 -49 61 -94 61 -100 0 -6 -20 -44 -44 -86 l-45 -75 25 -29 24
-29 -44 -58 c-66 -88 -114 -136 -186 -192 -224 -172 -507 -242 -694 -172 l-51
19 35 -29 c59 -50 202 -119 294 -140 98 -24 234 -28 322 -10 32 6 97 30 144
53 71 35 102 59 191 147 58 58 138 146 176 197 l71 92 86 -113 c142 -188 284
-308 423 -357 83 -30 253 -37 364 -14 133 27 269 91 369 175 22 18 18 17 -25
-5 -214 -108 -593 -2 -818 228 -109 112 -171 201 -322 467 -270 474 -447 646
-722 700 -56 11 -61 14 -53 31 9 15 400 1002 570 1437 l48 122 -443 0 -443 0
-39 -102 c-22 -57 -138 -364 -259 -684 l-219 -581 -275 684 -274 683 -444 0
c-418 0 -443 -1 -438 -17z m2306 -1662 c34 -25 34 -67 -1 -93 -19 -14 -42 -20
-79 -20 -84 1 -129 46 -96 97 30 46 123 54 176 16z m101 -121 c43 -24 12 -70
-48 -70 -33 0 -53 16 -53 42 0 33 60 49 101 28z m703 -943 c34 -29 111 -93
171 -142 135 -109 185 -155 185 -172 0 -38 -119 11 -218 89 -87 69 -212 227
-212 268 0 18 11 11 74 -43z"/>
<path d="M5800 1759 c-41 -11 -106 -37 -144 -57 -84 -45 -216 -167 -299 -276
l-60 -79 -14 27 c-17 32 -28 33 -48 2 -16 -23 -13 -29 85 -193 56 -92 104
-169 108 -170 4 -2 29 32 57 75 93 145 266 303 413 376 132 67 285 91 402 66
152 -34 305 -153 412 -320 26 -40 29 -42 23 -15 -35 161 -122 305 -244 402
-72 57 -209 127 -303 154 -110 31 -290 36 -388 8z"/>
</g>
</svg>
