<?xml version="1.0" encoding="iso-8859-1"?>
<!-- Uploaded to: SVG Repo, www.svgrepo.com, Generator: SVG Repo Mixer Tools -->
<svg fill="#000000" height="800px" width="800px" version="1.1" id="Layer_1" xmlns="http://www.w3.org/2000/svg" xmlns:xlink="http://www.w3.org/1999/xlink" 
	 viewBox="0 0 512 512" xml:space="preserve">
<g transform="translate(1 1)">
	<g>
		<g>
			<path d="M511,33.133C511,14.36,495.64-1,476.867-1H306.2c-18.773,0-34.133,15.36-34.133,34.133
				c0,15.829,10.921,29.232,25.6,33.046V101.4h-153.6h-51.2H24.6c-5.12,0-8.533,3.413-8.533,8.533V178.2
				c0,5.12,3.413,8.533,8.533,8.533h17.067V255H7.533C2.413,255-1,258.413-1,263.533v85.333c0,5.12,3.413,8.533,8.533,8.533H27.34
				C10.015,371.438-1,392.905-1,417.133c0,42.667,34.133,76.8,76.8,76.8h261.58C352.656,504.693,371.322,511,391.533,511
				c52.053,0,93.867-41.813,93.867-93.867V66.179C500.079,62.365,511,48.963,511,33.133z M84.333,272.067H101.4h17.067v68.267
				H84.333V272.067z M109.933,186.733H127V255h-17.067V186.733z M297.667,186.733v25.6H186.733c-5.12,0-8.533,3.413-8.533,8.533
				s3.413,8.533,8.533,8.533h110.933V255h-153.6v-68.267H297.667z M135.533,272.067h162.133v25.6H186.733
				c-5.12,0-8.533,3.413-8.533,8.533s3.413,8.533,8.533,8.533h110.933v25.6H135.533V272.067z M297.667,135.533H203.8
				c-5.12,0-8.533,3.413-8.533,8.533c0,5.12,3.413,8.533,8.533,8.533h93.867v17.067H152.6v-51.2h145.067V135.533z M135.533,118.467
				v51.2H101.4v-51.2H135.533z M33.133,118.467h51.2v51.2H50.2H33.133V118.467z M58.733,186.733h34.133V255H75.8H58.733V186.733z
				 M16.067,272.067H50.2h17.067v68.267h-51.2V272.067z M16.067,417.133c0-33.28,26.453-59.733,59.733-59.733H127h170.667v51.2
				H178.2c-5.12,0-8.533,3.413-8.533,8.533s3.413,8.533,8.533,8.533h119.852c0.001,0.009,0.002,0.018,0.003,0.027
				c0.112,1.248,0.243,2.491,0.402,3.724c0.011,0.089,0.025,0.177,0.037,0.266c0.159,1.203,0.34,2.399,0.544,3.587
				c0.022,0.13,0.041,0.26,0.064,0.39c0.195,1.107,0.413,2.206,0.646,3.3c0.077,0.364,0.155,0.728,0.236,1.091
				c0.209,0.928,0.43,1.852,0.667,2.769c0.153,0.6,0.317,1.196,0.482,1.792c0.011,0.04,0.021,0.081,0.033,0.121H229.4
				c-5.12,0-8.533,3.413-8.533,8.533c0,5.12,3.413,8.533,8.533,8.533h76.8c0.522,0,1.021-0.044,1.505-0.113
				c2.679,5.314,5.868,10.333,9.522,14.974c0.575,0.743,1.158,1.481,1.754,2.206H75.8C42.52,476.867,16.067,450.413,16.067,417.133z
				 M468.333,417.133c0,42.667-34.133,76.8-76.8,76.8c-17.13,0-32.878-5.511-45.601-14.859c-0.156-0.17-0.316-0.338-0.479-0.501
				c-4.153-3.069-7.919-6.486-11.283-10.195c-11.266-12.619-18.397-29.021-19.33-47.169c-0.005-0.099-0.008-0.198-0.012-0.296
				c-0.06-1.252-0.094-2.512-0.094-3.78v-68.267v-85.333V178.2v-68.267V67.267h153.6V417.133z M476.867,50.2H306.2
				c-9.387,0-17.067-7.68-17.067-17.067c0-9.387,7.68-17.067,17.067-17.067h170.667c9.387,0,17.067,7.68,17.067,17.067
				C493.933,42.52,486.253,50.2,476.867,50.2z"/>
			<path d="M340.333,118.467h51.2c5.12,0,8.533-3.413,8.533-8.533s-3.413-8.533-8.533-8.533h-51.2c-5.12,0-8.533,3.413-8.533,8.533
				S335.213,118.467,340.333,118.467z"/>
			<path d="M340.333,152.6h25.6c5.12,0,8.533-3.413,8.533-8.533c0-5.12-3.413-8.533-8.533-8.533h-25.6
				c-5.12,0-8.533,3.413-8.533,8.533C331.8,149.187,335.213,152.6,340.333,152.6z"/>
			<path d="M340.333,186.733h51.2c5.12,0,8.533-3.413,8.533-8.533s-3.413-8.533-8.533-8.533h-51.2c-5.12,0-8.533,3.413-8.533,8.533
				S335.213,186.733,340.333,186.733z"/>
			<path d="M340.333,220.867h25.6c5.12,0,8.533-3.413,8.533-8.533c0-5.12-3.413-8.533-8.533-8.533h-25.6
				c-5.12,0-8.533,3.413-8.533,8.533C331.8,217.453,335.213,220.867,340.333,220.867z"/>
			<path d="M340.333,255h51.2c5.12,0,8.533-3.413,8.533-8.533s-3.413-8.533-8.533-8.533h-51.2c-5.12,0-8.533,3.413-8.533,8.533
				S335.213,255,340.333,255z"/>
			<path d="M340.333,289.133h25.6c5.12,0,8.533-3.413,8.533-8.533s-3.413-8.533-8.533-8.533h-25.6c-5.12,0-8.533,3.413-8.533,8.533
				S335.213,289.133,340.333,289.133z"/>
			<path d="M340.333,323.267h51.2c5.12,0,8.533-3.413,8.533-8.533s-3.413-8.533-8.533-8.533h-51.2c-5.12,0-8.533,3.413-8.533,8.533
				S335.213,323.267,340.333,323.267z"/>
			<path d="M340.333,357.4h25.6c5.12,0,8.533-3.413,8.533-8.533s-3.413-8.533-8.533-8.533h-25.6c-5.12,0-8.533,3.413-8.533,8.533
				S335.213,357.4,340.333,357.4z"/>
			<path d="M186.733,442.733H75.8c-14.507,0-25.6-11.093-25.6-25.6s11.093-25.6,25.6-25.6h196.267c5.12,0,8.533-3.413,8.533-8.533
				s-3.413-8.533-8.533-8.533H75.8c-23.893,0-42.667,18.773-42.667,42.667S51.907,459.8,75.8,459.8h110.933
				c5.12,0,8.533-3.413,8.533-8.533C195.267,446.147,191.853,442.733,186.733,442.733z"/>
			<path d="M84.333,408.6c-5.12,0-8.533,3.413-8.533,8.533s3.413,8.533,8.533,8.533h51.2c5.12,0,8.533-3.413,8.533-8.533
				s-3.413-8.533-8.533-8.533H84.333z"/>
		</g>
	</g>
</g>
</svg>